<svg xmlns="http://www.w3.org/2000/svg" width="512" height="327" viewBox="0 0 512 327"><g transform="translate(0 -80)"><path d="M480,80H32A32.012,32.012,0,0,0,0,112v18.208L256,238.624,512,130.176V112A32.012,32.012,0,0,0,480,80Z" fill="#ffd54f"/><rect width="512" height="33" transform="translate(0 374)" fill="#ffd54f"/><g transform="translate(0 -25)"><path d="M262.24,270.7a15.852,15.852,0,0,1-12.48,0L0,164.96v235a32.009,32.009,0,0,0,32,32H480a32.009,32.009,0,0,0,32-32v-235Z" transform="translate(0 0)" fill="#ffd54f"/><rect width="512" height="33" transform="translate(0 105)" fill="#ffd54f"/></g></g></svg>