<svg xmlns="http://www.w3.org/2000/svg" width="50" height="50" viewBox="0 0 50 50"><g transform="translate(-724 -28)"><g transform="translate(724 28)" fill="#454e57" stroke="#202a34" stroke-linejoin="round" stroke-width="1.5"><rect width="50" height="50" rx="10" stroke="none"/><rect x="0.75" y="0.75" width="48.5" height="48.5" rx="9.25" fill="none"/></g><path d="M-11.026-27.75h8.917v13.542A6.149,6.149,0,0,1-.3-16.946a5.612,5.612,0,0,1,3.7-1.036q5.735,0,5.735,6.179V-.666h2.072V0H.74V-.666H2.257V-12.691a8.535,8.535,0,0,0-.3-2.868,1.078,1.078,0,0,0-1.073-.647q-1.184,0-2.09,1.554a7.371,7.371,0,0,0-.906,3.774V-.666H-.518V0H-11.026V-.666h2.035V-27.084h-2.035Z" transform="translate(749 67)" fill="#fff"/></g></svg>